# xmcd
#
# Track frame offsets:
#	150
#	12975
#	29639
#	43557
#	57299
#	71673
#	84712
#	98259
#	114591
#	128454
#	141929
#	157294
#	171109
#	185027
#	201646
#	213152
#	225890
#	239690
#	255105
#	265958
#
# Disc length: 3724 seconds
#
# Revision: 0
# Processed by: cddbd v1.5.2PL0 Copyright (c) Steve Scherf et al.
# Submitted via: EasyCDDAExtractor 16.0.6.1
#
DISCID=1a0e8a14
DTITLE=Γκολές Μπάμπης - Ρεμπέτικα πορτρέτα 2-1-Γκολές Μπάμπης
DYEAR=2010
DGENRE=Ρεμπέτικη
TTITLE0=Γκολές Μπάμπης - Τα δαχτυλίδια [Γιώργος Μητσάκης]
TTITLE1=Γκολές Μπάμπης - Αλανιάρα Μαρίκα [Βαγγέλης Παπάζογλου]
TTITLE2=Γκολές Μπάμπης - Ντουνιά ανακριτή [Α. Χατζηχρήστος-Παρ. Κασαπάκη]
TTITLE3=Γκολές Μπάμπης - Χατζηκυριάκειο (Από βραδίς ξεκίνησα) [Δημ. Γκόγκος]
TTITLE4=Γκολές Μπάμπης - Ξαβεριώτισσα [Δημήτρης Γκόγκος]
TTITLE5=Γκολές Μπάμπης-Χριστιάνα - Έμορφη παιχνιδιάρα μου [Δημήτρης Γκόγκος]
TTITLE6=Γκολές Μπάμπης - Σ' ένα απόκρημνο ακρογιάλι [Σ. Χρυσίνης-Χ. Βασιλειάδη
TTITLE6=ς]
TTITLE7=Γκολές Μπάμπης - Ο μαχαραγιάς [Σ. Τζουανάκος-Ν. Γκούμας]
TTITLE8=Γκολές Μπάμπης - Ψιλοβρέχει [Γιώργος Μητσάκης]
TTITLE9=Γκολές Μπάμπης - Ζούγκλα στα βάθη της Ανατολής [Μπάμπης Γκολές]
TTITLE10=Γκολές Μπάμπης - Δεν πάει κάτω το κρασί [Γ. Παπαϊωάννου-Κ. Μάνεσης]
TTITLE11=Γκολές Μπάμπης - Μάγισσες, φέρτε βότανα [Γ. Τατασσόπουλος-Ν. Ρούτσος]
TTITLE12=Γκολές Μπάμπης - Πέντε Έλληνες στον Άδη [Γ. Παπαϊωάννου-Κ. Μάνεσης]
TTITLE13=Γκολές Μπάμπης - Βαδίζω και παραμιλώ [Γιάννης Παπαϊωάννου]
TTITLE14=Γκολές Μπάμπης - Θέλω να πάψεις να γελάς [Σ. Τζουανάκος-Χριστιάνα]
TTITLE15=Γκολές Μπάμπης - Ο ψαράς [Γιώργος Μητσάκης]
TTITLE16=Γκολές Μπάμπης - Μιά βαρκούλα θα ναυλώσω [Μανώλης Χρυσοφάκης]
TTITLE17=Γκολές Μπάμπης - Το παιδί του δρόμου [Βαγγέλης Παπάζογλου]
TTITLE18=Γκολές Μπάμπης - Οι σφουγγαράδες [Γιώργος Μπάτης]
TTITLE19=Γκολές Μπάμπης-Χριστιάνα - Σταλαματιά, σταλαματιά [Σ. Τζουανάκος-Ν. Γ
TTITLE19=κούμας]
EXTD=
EXTT0=
EXTT1=
EXTT2=
EXTT3=
EXTT4=
EXTT5=
EXTT6=
EXTT7=
EXTT8=
EXTT9=
EXTT10=
EXTT11=
EXTT12=
EXTT13=
EXTT14=
EXTT15=
EXTT16=
EXTT17=
EXTT18=
EXTT19=
PLAYORDER=
